<mxfile host="app.diagrams.net" agent="Mozilla/5.0 (X11; Ubuntu; Linux x86_64; rv:142.0) Gecko/20100101 Firefox/142.0" version="28.1.2">
  <diagram name="Page-1" id="Vi3fVRgGJA8oLxFjFOCm">
    <mxGraphModel dx="1818" dy="2052" grid="0" gridSize="10" guides="1" tooltips="1" connect="1" arrows="1" fold="1" page="0" pageScale="1" pageWidth="850" pageHeight="1100" math="0" shadow="0">
      <root>
        <mxCell id="0" />
        <mxCell id="1" parent="0" />
        <mxCell id="Q4ovm24aHvTZ16y9G4hr-1" value="CPU Core 1" style="text;html=1;align=right;verticalAlign=middle;whiteSpace=wrap;rounded=0;" vertex="1" parent="1">
          <mxGeometry x="-755" y="-1010" width="70" height="30" as="geometry" />
        </mxCell>
        <mxCell id="Q4ovm24aHvTZ16y9G4hr-2" value="Not Concurrent" style="text;html=1;align=right;verticalAlign=middle;whiteSpace=wrap;rounded=0;fontSize=16;" vertex="1" parent="1">
          <mxGeometry x="-890" y="-1010" width="120" height="30" as="geometry" />
        </mxCell>
        <mxCell id="Q4ovm24aHvTZ16y9G4hr-10" value="Lifelines" style="text;html=1;align=right;verticalAlign=middle;whiteSpace=wrap;rounded=0;" vertex="1" parent="1">
          <mxGeometry x="-745" y="-980" width="60" height="30" as="geometry" />
        </mxCell>
        <mxCell id="Q4ovm24aHvTZ16y9G4hr-11" value="Time" style="text;html=1;align=right;verticalAlign=middle;whiteSpace=wrap;rounded=0;rotation=0;" vertex="1" parent="1">
          <mxGeometry x="-745" y="-1060" width="60" height="30" as="geometry" />
        </mxCell>
        <mxCell id="Q4ovm24aHvTZ16y9G4hr-12" value="" style="endArrow=classic;html=1;rounded=0;" edge="1" parent="1">
          <mxGeometry width="50" height="50" relative="1" as="geometry">
            <mxPoint x="-665" y="-1045" as="sourcePoint" />
            <mxPoint x="-30" y="-1045" as="targetPoint" />
          </mxGeometry>
        </mxCell>
        <mxCell id="Q4ovm24aHvTZ16y9G4hr-235" value="Task 1.1" style="rounded=0;whiteSpace=wrap;html=1;fillColor=#fff2cc;strokeColor=#d6b656;rotation=0;" vertex="1" parent="1">
          <mxGeometry x="-665" y="-1015" width="120" height="40" as="geometry" />
        </mxCell>
        <mxCell id="Q4ovm24aHvTZ16y9G4hr-236" value="Task 1.2" style="rounded=0;whiteSpace=wrap;html=1;fillColor=#fff2cc;strokeColor=#d6b656;rotation=0;" vertex="1" parent="1">
          <mxGeometry x="-545" y="-1015" width="240" height="40" as="geometry" />
        </mxCell>
        <mxCell id="Q4ovm24aHvTZ16y9G4hr-237" value="Task 1.3" style="rounded=0;whiteSpace=wrap;html=1;fillColor=#fff2cc;strokeColor=#d6b656;rotation=0;" vertex="1" parent="1">
          <mxGeometry x="-305" y="-1015" width="35" height="40" as="geometry" />
        </mxCell>
        <mxCell id="Q4ovm24aHvTZ16y9G4hr-238" value="Task 2.1" style="rounded=0;whiteSpace=wrap;html=1;fillColor=#dae8fc;strokeColor=#6c8ebf;rotation=0;" vertex="1" parent="1">
          <mxGeometry x="-269" y="-1015" width="120" height="40" as="geometry" />
        </mxCell>
        <mxCell id="Q4ovm24aHvTZ16y9G4hr-239" value="Task 2.2&amp;nbsp;" style="rounded=0;whiteSpace=wrap;html=1;fillColor=#dae8fc;strokeColor=#6c8ebf;rotation=0;" vertex="1" parent="1">
          <mxGeometry x="-150" y="-1015" width="80" height="40" as="geometry" />
        </mxCell>
        <mxCell id="Q4ovm24aHvTZ16y9G4hr-240" value="Task 2.3" style="rounded=0;whiteSpace=wrap;html=1;fillColor=#dae8fc;strokeColor=#6c8ebf;" vertex="1" parent="1">
          <mxGeometry x="-70" y="-1015" width="40" height="40" as="geometry" />
        </mxCell>
        <mxCell id="Q4ovm24aHvTZ16y9G4hr-241" value="" style="endArrow=none;html=1;rounded=0;strokeWidth=3;fillColor=#fff2cc;strokeColor=#d6b656;" edge="1" parent="1">
          <mxGeometry width="50" height="50" relative="1" as="geometry">
            <mxPoint x="-271" y="-960.28" as="sourcePoint" />
            <mxPoint x="-665" y="-960.28" as="targetPoint" />
          </mxGeometry>
        </mxCell>
        <mxCell id="Q4ovm24aHvTZ16y9G4hr-243" value="" style="endArrow=none;html=1;rounded=0;strokeWidth=3;fillColor=#dae8fc;strokeColor=#6c8ebf;" edge="1" parent="1">
          <mxGeometry width="50" height="50" relative="1" as="geometry">
            <mxPoint x="-29" y="-960.28" as="sourcePoint" />
            <mxPoint x="-269" y="-960.28" as="targetPoint" />
          </mxGeometry>
        </mxCell>
        <mxCell id="Q4ovm24aHvTZ16y9G4hr-245" value="CPU Core 1" style="text;html=1;align=right;verticalAlign=middle;whiteSpace=wrap;rounded=0;" vertex="1" parent="1">
          <mxGeometry x="-755" y="-885" width="70" height="30" as="geometry" />
        </mxCell>
        <mxCell id="Q4ovm24aHvTZ16y9G4hr-246" value="Concurrent" style="text;html=1;align=right;verticalAlign=middle;whiteSpace=wrap;rounded=0;fontSize=16;" vertex="1" parent="1">
          <mxGeometry x="-890" y="-885" width="120" height="30" as="geometry" />
        </mxCell>
        <mxCell id="Q4ovm24aHvTZ16y9G4hr-247" value="Lifelines" style="text;html=1;align=right;verticalAlign=middle;whiteSpace=wrap;rounded=0;" vertex="1" parent="1">
          <mxGeometry x="-745" y="-855" width="60" height="30" as="geometry" />
        </mxCell>
        <mxCell id="Q4ovm24aHvTZ16y9G4hr-248" value="Time" style="text;html=1;align=right;verticalAlign=middle;whiteSpace=wrap;rounded=0;rotation=0;" vertex="1" parent="1">
          <mxGeometry x="-745" y="-935" width="60" height="30" as="geometry" />
        </mxCell>
        <mxCell id="Q4ovm24aHvTZ16y9G4hr-249" value="" style="endArrow=classic;html=1;rounded=0;" edge="1" parent="1">
          <mxGeometry width="50" height="50" relative="1" as="geometry">
            <mxPoint x="-665" y="-920" as="sourcePoint" />
            <mxPoint x="-30" y="-920" as="targetPoint" />
          </mxGeometry>
        </mxCell>
        <mxCell id="Q4ovm24aHvTZ16y9G4hr-250" value="Task 1.1" style="rounded=0;whiteSpace=wrap;html=1;fillColor=#fff2cc;strokeColor=#d6b656;rotation=0;" vertex="1" parent="1">
          <mxGeometry x="-665" y="-890" width="120" height="40" as="geometry" />
        </mxCell>
        <mxCell id="Q4ovm24aHvTZ16y9G4hr-251" value="Task 1.2" style="rounded=0;whiteSpace=wrap;html=1;fillColor=#fff2cc;strokeColor=#d6b656;rotation=0;" vertex="1" parent="1">
          <mxGeometry x="-545" y="-890" width="240" height="40" as="geometry" />
        </mxCell>
        <mxCell id="Q4ovm24aHvTZ16y9G4hr-252" value="Task 1.3" style="rounded=0;whiteSpace=wrap;html=1;fillColor=#fff2cc;strokeColor=#d6b656;rotation=0;" vertex="1" parent="1">
          <mxGeometry x="-105" y="-890" width="35" height="40" as="geometry" />
        </mxCell>
        <mxCell id="Q4ovm24aHvTZ16y9G4hr-253" value="Task 2.1" style="rounded=0;whiteSpace=wrap;html=1;fillColor=#dae8fc;strokeColor=#6c8ebf;rotation=0;" vertex="1" parent="1">
          <mxGeometry x="-305" y="-890" width="120" height="40" as="geometry" />
        </mxCell>
        <mxCell id="Q4ovm24aHvTZ16y9G4hr-254" value="Task 2.2&amp;nbsp;" style="rounded=0;whiteSpace=wrap;html=1;fillColor=#dae8fc;strokeColor=#6c8ebf;rotation=0;" vertex="1" parent="1">
          <mxGeometry x="-185" y="-890" width="80" height="40" as="geometry" />
        </mxCell>
        <mxCell id="Q4ovm24aHvTZ16y9G4hr-255" value="Task 2.3" style="rounded=0;whiteSpace=wrap;html=1;fillColor=#dae8fc;strokeColor=#6c8ebf;" vertex="1" parent="1">
          <mxGeometry x="-70" y="-890" width="40" height="40" as="geometry" />
        </mxCell>
        <mxCell id="Q4ovm24aHvTZ16y9G4hr-256" value="" style="endArrow=none;html=1;rounded=0;strokeWidth=3;fillColor=#fff2cc;strokeColor=#d6b656;" edge="1" parent="1">
          <mxGeometry width="50" height="50" relative="1" as="geometry">
            <mxPoint x="-70" y="-835" as="sourcePoint" />
            <mxPoint x="-665" y="-835.28" as="targetPoint" />
          </mxGeometry>
        </mxCell>
        <mxCell id="Q4ovm24aHvTZ16y9G4hr-257" value="" style="endArrow=none;html=1;rounded=0;strokeWidth=3;fillColor=#dae8fc;strokeColor=#6c8ebf;" edge="1" parent="1">
          <mxGeometry width="50" height="50" relative="1" as="geometry">
            <mxPoint x="-29" y="-825" as="sourcePoint" />
            <mxPoint x="-300" y="-825" as="targetPoint" />
          </mxGeometry>
        </mxCell>
        <mxCell id="Q4ovm24aHvTZ16y9G4hr-258" value="CPU Core 1" style="text;html=1;align=right;verticalAlign=middle;whiteSpace=wrap;rounded=0;" vertex="1" parent="1">
          <mxGeometry x="-756" y="-760.28" width="70" height="30" as="geometry" />
        </mxCell>
        <mxCell id="Q4ovm24aHvTZ16y9G4hr-259" value="Concurrent" style="text;html=1;align=right;verticalAlign=middle;whiteSpace=wrap;rounded=0;fontSize=16;" vertex="1" parent="1">
          <mxGeometry x="-891" y="-760.28" width="120" height="30" as="geometry" />
        </mxCell>
        <mxCell id="Q4ovm24aHvTZ16y9G4hr-260" value="Lifelines" style="text;html=1;align=right;verticalAlign=middle;whiteSpace=wrap;rounded=0;" vertex="1" parent="1">
          <mxGeometry x="-746" y="-730.28" width="60" height="30" as="geometry" />
        </mxCell>
        <mxCell id="Q4ovm24aHvTZ16y9G4hr-261" value="Time" style="text;html=1;align=right;verticalAlign=middle;whiteSpace=wrap;rounded=0;rotation=0;" vertex="1" parent="1">
          <mxGeometry x="-746" y="-810.28" width="60" height="30" as="geometry" />
        </mxCell>
        <mxCell id="Q4ovm24aHvTZ16y9G4hr-262" value="" style="endArrow=classic;html=1;rounded=0;" edge="1" parent="1">
          <mxGeometry width="50" height="50" relative="1" as="geometry">
            <mxPoint x="-666" y="-795.28" as="sourcePoint" />
            <mxPoint x="-31" y="-795.28" as="targetPoint" />
          </mxGeometry>
        </mxCell>
        <mxCell id="Q4ovm24aHvTZ16y9G4hr-263" value="Task 1.1" style="rounded=0;whiteSpace=wrap;html=1;fillColor=#fff2cc;strokeColor=#d6b656;rotation=0;" vertex="1" parent="1">
          <mxGeometry x="-666" y="-765.28" width="120" height="40" as="geometry" />
        </mxCell>
        <mxCell id="Q4ovm24aHvTZ16y9G4hr-265" value="Task 1.3" style="rounded=0;whiteSpace=wrap;html=1;fillColor=#fff2cc;strokeColor=#d6b656;rotation=0;" vertex="1" parent="1">
          <mxGeometry x="-215" y="-765.28" width="35" height="40" as="geometry" />
        </mxCell>
        <mxCell id="Q4ovm24aHvTZ16y9G4hr-266" value="Task 2.1" style="rounded=0;whiteSpace=wrap;html=1;fillColor=#dae8fc;strokeColor=#6c8ebf;rotation=0;" vertex="1" parent="1">
          <mxGeometry x="-511" y="-765.28" width="120" height="40" as="geometry" />
        </mxCell>
        <mxCell id="Q4ovm24aHvTZ16y9G4hr-268" value="Task 2.3" style="rounded=0;whiteSpace=wrap;html=1;fillColor=#dae8fc;strokeColor=#6c8ebf;" vertex="1" parent="1">
          <mxGeometry x="-255" y="-765.28" width="40" height="40" as="geometry" />
        </mxCell>
        <mxCell id="Q4ovm24aHvTZ16y9G4hr-269" value="" style="endArrow=none;html=1;rounded=0;strokeWidth=3;fillColor=#fff2cc;strokeColor=#d6b656;" edge="1" parent="1">
          <mxGeometry width="50" height="50" relative="1" as="geometry">
            <mxPoint x="-180" y="-711" as="sourcePoint" />
            <mxPoint x="-666" y="-710.56" as="targetPoint" />
          </mxGeometry>
        </mxCell>
        <mxCell id="Q4ovm24aHvTZ16y9G4hr-270" value="" style="endArrow=none;html=1;rounded=0;strokeWidth=3;fillColor=#dae8fc;strokeColor=#6c8ebf;" edge="1" parent="1">
          <mxGeometry width="50" height="50" relative="1" as="geometry">
            <mxPoint x="-214" y="-699" as="sourcePoint" />
            <mxPoint x="-511" y="-700.28" as="targetPoint" />
          </mxGeometry>
        </mxCell>
        <mxCell id="Q4ovm24aHvTZ16y9G4hr-297" value="Task 1.2" style="rounded=0;whiteSpace=wrap;html=1;fillColor=#fff2cc;strokeColor=#d6b656;rotation=0;" vertex="1" parent="1">
          <mxGeometry x="-546" y="-765.28" width="35" height="40" as="geometry" />
        </mxCell>
        <mxCell id="Q4ovm24aHvTZ16y9G4hr-298" value="Task 2.2" style="rounded=0;whiteSpace=wrap;html=1;fillColor=#dae8fc;strokeColor=#6c8ebf;" vertex="1" parent="1">
          <mxGeometry x="-391" y="-765.28" width="40" height="40" as="geometry" />
        </mxCell>
        <mxCell id="Q4ovm24aHvTZ16y9G4hr-301" value="&lt;div&gt;Waiting on external event&lt;/div&gt;&lt;div&gt;to complete&lt;/div&gt;" style="rounded=0;whiteSpace=wrap;html=1;rotation=0;" vertex="1" parent="1">
          <mxGeometry x="-351" y="-765.28" width="96" height="40" as="geometry" />
        </mxCell>
        <mxCell id="Q4ovm24aHvTZ16y9G4hr-326" value="CPU Core 1" style="text;html=1;align=right;verticalAlign=middle;whiteSpace=wrap;rounded=0;" vertex="1" parent="1">
          <mxGeometry x="-756" y="-635.28" width="70" height="30" as="geometry" />
        </mxCell>
        <mxCell id="Q4ovm24aHvTZ16y9G4hr-327" value="Parallel and Concurrent" style="text;html=1;align=right;verticalAlign=middle;whiteSpace=wrap;rounded=0;fontSize=16;" vertex="1" parent="1">
          <mxGeometry x="-960" y="-635.28" width="189" height="30" as="geometry" />
        </mxCell>
        <mxCell id="Q4ovm24aHvTZ16y9G4hr-328" value="Lifelines" style="text;html=1;align=right;verticalAlign=middle;whiteSpace=wrap;rounded=0;" vertex="1" parent="1">
          <mxGeometry x="-746" y="-605.28" width="60" height="30" as="geometry" />
        </mxCell>
        <mxCell id="Q4ovm24aHvTZ16y9G4hr-329" value="Time" style="text;html=1;align=right;verticalAlign=middle;whiteSpace=wrap;rounded=0;rotation=0;" vertex="1" parent="1">
          <mxGeometry x="-746" y="-685.28" width="60" height="30" as="geometry" />
        </mxCell>
        <mxCell id="Q4ovm24aHvTZ16y9G4hr-330" value="" style="endArrow=classic;html=1;rounded=0;" edge="1" parent="1">
          <mxGeometry width="50" height="50" relative="1" as="geometry">
            <mxPoint x="-666" y="-670.28" as="sourcePoint" />
            <mxPoint x="-31" y="-670.28" as="targetPoint" />
          </mxGeometry>
        </mxCell>
        <mxCell id="Q4ovm24aHvTZ16y9G4hr-331" value="Task 1.1" style="rounded=0;whiteSpace=wrap;html=1;fillColor=#fff2cc;strokeColor=#d6b656;rotation=0;" vertex="1" parent="1">
          <mxGeometry x="-666" y="-640.28" width="120" height="40" as="geometry" />
        </mxCell>
        <mxCell id="Q4ovm24aHvTZ16y9G4hr-332" value="Task 1.3" style="rounded=0;whiteSpace=wrap;html=1;fillColor=#fff2cc;strokeColor=#d6b656;rotation=0;" vertex="1" parent="1">
          <mxGeometry x="-215" y="-640.28" width="35" height="40" as="geometry" />
        </mxCell>
        <mxCell id="Q4ovm24aHvTZ16y9G4hr-333" value="Task 2.1" style="rounded=0;whiteSpace=wrap;html=1;fillColor=#dae8fc;strokeColor=#6c8ebf;rotation=0;" vertex="1" parent="1">
          <mxGeometry x="-511" y="-640.28" width="120" height="40" as="geometry" />
        </mxCell>
        <mxCell id="Q4ovm24aHvTZ16y9G4hr-334" value="Task 2.3" style="rounded=0;whiteSpace=wrap;html=1;fillColor=#dae8fc;strokeColor=#6c8ebf;" vertex="1" parent="1">
          <mxGeometry x="-255" y="-640.28" width="40" height="40" as="geometry" />
        </mxCell>
        <mxCell id="Q4ovm24aHvTZ16y9G4hr-335" value="" style="endArrow=none;html=1;rounded=0;strokeWidth=3;fillColor=#fff2cc;strokeColor=#d6b656;" edge="1" parent="1">
          <mxGeometry width="50" height="50" relative="1" as="geometry">
            <mxPoint x="-180" y="-586" as="sourcePoint" />
            <mxPoint x="-666" y="-585.56" as="targetPoint" />
          </mxGeometry>
        </mxCell>
        <mxCell id="Q4ovm24aHvTZ16y9G4hr-336" value="" style="endArrow=none;html=1;rounded=0;strokeWidth=3;fillColor=#dae8fc;strokeColor=#6c8ebf;" edge="1" parent="1">
          <mxGeometry width="50" height="50" relative="1" as="geometry">
            <mxPoint x="-214" y="-575" as="sourcePoint" />
            <mxPoint x="-511" y="-575.28" as="targetPoint" />
          </mxGeometry>
        </mxCell>
        <mxCell id="Q4ovm24aHvTZ16y9G4hr-337" value="Task 1.2" style="rounded=0;whiteSpace=wrap;html=1;fillColor=#fff2cc;strokeColor=#d6b656;rotation=0;" vertex="1" parent="1">
          <mxGeometry x="-546" y="-640.28" width="35" height="40" as="geometry" />
        </mxCell>
        <mxCell id="Q4ovm24aHvTZ16y9G4hr-338" value="Task 2.2" style="rounded=0;whiteSpace=wrap;html=1;fillColor=#dae8fc;strokeColor=#6c8ebf;" vertex="1" parent="1">
          <mxGeometry x="-391" y="-640.28" width="40" height="40" as="geometry" />
        </mxCell>
        <mxCell id="Q4ovm24aHvTZ16y9G4hr-339" value="&lt;div&gt;Waiting on external event&lt;/div&gt;&lt;div&gt;to complete&lt;/div&gt;" style="rounded=0;whiteSpace=wrap;html=1;rotation=0;" vertex="1" parent="1">
          <mxGeometry x="-351" y="-640.28" width="96" height="40" as="geometry" />
        </mxCell>
        <mxCell id="Q4ovm24aHvTZ16y9G4hr-343" value="Task 4.1" style="rounded=0;whiteSpace=wrap;html=1;fillColor=#d5e8d4;strokeColor=#82b366;rotation=0;" vertex="1" parent="1">
          <mxGeometry x="-596" y="-560" width="120" height="40" as="geometry" />
        </mxCell>
        <mxCell id="Q4ovm24aHvTZ16y9G4hr-345" value="Task 3.2" style="rounded=0;whiteSpace=wrap;html=1;fillColor=#ffe6cc;strokeColor=#d79b00;rotation=0;" vertex="1" parent="1">
          <mxGeometry x="-666" y="-560" width="35" height="40" as="geometry" />
        </mxCell>
        <mxCell id="Q4ovm24aHvTZ16y9G4hr-346" value="Task 3.1" style="rounded=0;whiteSpace=wrap;html=1;fillColor=#ffe6cc;strokeColor=#d79b00;rotation=0;" vertex="1" parent="1">
          <mxGeometry x="-631" y="-560" width="35" height="40" as="geometry" />
        </mxCell>
        <mxCell id="Q4ovm24aHvTZ16y9G4hr-347" value="Task 3.3" style="rounded=0;whiteSpace=wrap;html=1;fillColor=#ffe6cc;strokeColor=#d79b00;rotation=0;" vertex="1" parent="1">
          <mxGeometry x="-476" y="-560" width="35" height="40" as="geometry" />
        </mxCell>
        <mxCell id="Q4ovm24aHvTZ16y9G4hr-348" value="Task 4.2" style="rounded=0;whiteSpace=wrap;html=1;fillColor=#d5e8d4;strokeColor=#82b366;rotation=0;" vertex="1" parent="1">
          <mxGeometry x="-441" y="-560" width="35" height="40" as="geometry" />
        </mxCell>
        <mxCell id="Q4ovm24aHvTZ16y9G4hr-352" value="CPU Core 2" style="text;html=1;align=right;verticalAlign=middle;whiteSpace=wrap;rounded=0;" vertex="1" parent="1">
          <mxGeometry x="-755" y="-560" width="70" height="30" as="geometry" />
        </mxCell>
        <mxCell id="Q4ovm24aHvTZ16y9G4hr-353" value="Lifelines" style="text;html=1;align=right;verticalAlign=middle;whiteSpace=wrap;rounded=0;" vertex="1" parent="1">
          <mxGeometry x="-745" y="-530" width="60" height="30" as="geometry" />
        </mxCell>
        <mxCell id="Q4ovm24aHvTZ16y9G4hr-354" value="" style="endArrow=none;html=1;rounded=0;strokeWidth=3;fillColor=#ffe6cc;strokeColor=#d79b00;" edge="1" parent="1">
          <mxGeometry width="50" height="50" relative="1" as="geometry">
            <mxPoint x="-440" y="-510" as="sourcePoint" />
            <mxPoint x="-665" y="-510.28" as="targetPoint" />
          </mxGeometry>
        </mxCell>
        <mxCell id="Q4ovm24aHvTZ16y9G4hr-355" value="" style="endArrow=none;html=1;rounded=0;strokeWidth=3;fillColor=#d5e8d4;strokeColor=#82b366;" edge="1" parent="1">
          <mxGeometry width="50" height="50" relative="1" as="geometry">
            <mxPoint x="-410" y="-500" as="sourcePoint" />
            <mxPoint x="-596" y="-500" as="targetPoint" />
          </mxGeometry>
        </mxCell>
      </root>
    </mxGraphModel>
  </diagram>
</mxfile>
